<svg id="Capa_1" enable-background="new 0 0 512 512" height="512" viewBox="0 0 512 512" width="512" xmlns="http://www.w3.org/2000/svg"><g><path d="m256 242c-20.038 0-38.873 7.8-53.037 21.963-5.858 5.858-5.858 15.355 0 21.213s15.355 5.857 21.213 0c8.498-8.496 19.8-13.176 31.824-13.176s23.326 4.679 31.823 13.176c5.86 5.861 15.357 5.855 21.213 0 5.858-5.858 5.858-15.355 0-21.213-14.162-14.163-32.998-21.963-53.036-21.963z"/><path d="m160.541 221.546c-5.856 5.859-5.854 15.356.005 21.213 5.858 5.857 15.356 5.855 21.213-.005 19.823-19.832 46.189-30.754 74.241-30.754s54.417 10.922 74.24 30.754c5.856 5.858 15.353 5.863 21.214.005 5.859-5.856 5.861-15.354.005-21.213-25.49-25.502-59.392-39.546-95.459-39.546-36.068 0-69.969 14.044-95.459 39.546z"/><circle cx="256" cy="316.995" r="15"/><path d="m151 122h-116c-8.284 0-15 6.716-15 15v300c0 8.284 6.716 15 15 15h176v30h-36.634c-8.284 0-15 6.716-15 15s6.716 15 15 15h163.269c8.284 0 15-6.716 15-15s-6.716-15-15-15h-36.635v-30h176c8.284 0 15-6.716 15-15v-300c0-8.284-6.716-15-15-15h-116v-62h38.077c6.192 17.459 22.865 30 42.42 30 24.813 0 45-20.187 45-45s-20.187-45-45-45c-19.555 0-36.228 12.541-42.42 30h-53.077c-8.284 0-15 6.716-15 15v77h-60v-34.58c17.459-6.192 30-22.865 30-42.42 0-24.813-20.187-45-45-45s-45 20.187-45 45c0 19.555 12.541 36.228 30 42.42v34.58h-60v-77c0-8.284-6.716-15-15-15h-53.077c-6.192-17.459-22.865-30-42.42-30-24.813 0-45 20.187-45 45s20.187 45 45 45c19.555 0 36.228-12.541 42.42-30h38.077zm290.497-92c8.271 0 15 6.729 15 15s-6.729 15-15 15-15-6.729-15-15 6.729-15 15-15zm-185.497 0c8.271 0 15 6.729 15 15s-6.729 15-15 15-15-6.729-15-15 6.729-15 15-15zm15 452h-30v-30h30zm15.087-60c-.029 0-.058-.004-.087-.004s-.058.004-.087.004h-59.826c-.029 0-.058-.004-.087-.004s-.058.004-.087.004h-175.913v-30.004h412v30.004zm175.913-60.004h-412v-209.996h412zm-391.497-301.996c-8.271 0-15-6.729-15-15s6.729-15 15-15 15 6.729 15 15-6.729 15-15 15z"/></g></svg>